<svg width="340" height="80" viewBox="0 0 340 80" fill="none" xmlns="http://www.w3.org/2000/svg" role="img" aria-label="Honeycomb"><defs><linearGradient id="wA" x1="40" y1="29" x2="40" y2="51" gradientUnits="userSpaceOnUse"><stop offset="0" stop-color="#FFC04D"/><stop offset="1" stop-color="#E0860C"/></linearGradient></defs><path d="M 68.1 40.0 L 63.1 48.7 L 53.1 48.7 L 48.1 40.0 L 53.1 31.3 L 63.1 31.3 Z" fill="none" stroke="#F7A823" stroke-width="2.4" stroke-opacity="0.85" stroke-linejoin="round"/><path d="M 59.1 55.7 L 54.1 64.4 L 44.1 64.4 L 39.1 55.7 L 44.1 47.0 L 54.1 47.0 Z" fill="none" stroke="#F7A823" stroke-width="2.4" stroke-opacity="0.85" stroke-linejoin="round"/><path d="M 40.9 55.7 L 35.9 64.4 L 25.9 64.4 L 20.9 55.7 L 25.9 47.0 L 35.9 47.0 Z" fill="none" stroke="#F7A823" stroke-width="2.4" stroke-opacity="0.85" stroke-linejoin="round"/><path d="M 31.9 40.0 L 26.9 48.7 L 16.9 48.7 L 11.9 40.0 L 16.9 31.3 L 26.9 31.3 Z" fill="none" stroke="#F7A823" stroke-width="2.4" stroke-opacity="0.85" stroke-linejoin="round"/><path d="M 40.9 24.3 L 35.9 33.0 L 25.9 33.0 L 20.9 24.3 L 25.9 15.6 L 35.9 15.6 Z" fill="none" stroke="#F7A823" stroke-width="2.4" stroke-opacity="0.85" stroke-linejoin="round"/><path d="M 59.1 24.3 L 54.1 33.0 L 44.1 33.0 L 39.1 24.3 L 44.1 15.6 L 54.1 15.6 Z" fill="none" stroke="#F7A823" stroke-width="2.4" stroke-opacity="0.85" stroke-linejoin="round"/><path d="M 50.0 40.0 L 45.0 48.7 L 35.0 48.7 L 30.0 40.0 L 35.0 31.3 L 45.0 31.3 Z" fill="url(#wA)" stroke="#FFD27A" stroke-width="0.8" stroke-linejoin="round"/><text x="92" y="51" font-family="Inter, system-ui, sans-serif" font-size="34" font-weight="700" letter-spacing="-1" fill="#1A1206">honeycomb</text></svg>
