<svg width="340" height="80" viewBox="0 0 340 80" fill="none" xmlns="http://www.w3.org/2000/svg" role="img" aria-label="Honeycomb"><defs><linearGradient id="wg" x1="40" y1="28" x2="40" y2="52" gradientUnits="userSpaceOnUse"><stop offset="0" stop-color="#FFCB63"/><stop offset="0.55" stop-color="#F7A823"/><stop offset="1" stop-color="#DB7F08"/></linearGradient></defs><path d="M 69.19 40.0 L 63.94 49.09 L 53.44 49.09 L 48.19 40.0 L 53.44 30.91 L 63.94 30.91 Z" fill="none" stroke="#F7A823" stroke-width="2.6" stroke-linejoin="round"/><path d="M 59.84 56.18 L 54.59 65.28 L 44.09 65.28 L 38.84 56.18 L 44.09 47.09 L 54.59 47.09 Z" fill="none" stroke="#F7A823" stroke-width="2.6" stroke-linejoin="round"/><path d="M 41.16 56.18 L 35.91 65.28 L 25.41 65.28 L 20.16 56.18 L 25.41 47.09 L 35.91 47.09 Z" fill="none" stroke="#F7A823" stroke-width="2.6" stroke-linejoin="round"/><path d="M 31.81 40.0 L 26.56 49.09 L 16.06 49.09 L 10.81 40.0 L 16.06 30.91 L 26.56 30.91 Z" fill="none" stroke="#F7A823" stroke-width="2.6" stroke-linejoin="round"/><path d="M 41.16 23.82 L 35.91 32.91 L 25.41 32.91 L 20.16 23.82 L 25.41 14.72 L 35.91 14.72 Z" fill="none" stroke="#F7A823" stroke-width="2.6" stroke-linejoin="round"/><path d="M 59.84 23.82 L 54.59 32.91 L 44.09 32.91 L 38.84 23.82 L 44.09 14.72 L 54.59 14.72 Z" fill="none" stroke="#F7A823" stroke-width="2.6" stroke-linejoin="round"/><path d="M 50.5 40.0 L 45.25 49.09 L 34.75 49.09 L 29.5 40.0 L 34.75 30.91 L 45.25 30.91 Z" fill="url(#wg)" stroke="#FFD98A" stroke-width="0.9" stroke-linejoin="round"/><text x="92" y="51" font-family="Inter, system-ui, sans-serif" font-size="34" font-weight="700" letter-spacing="-1" fill="#F7F3EC">honeycomb</text></svg>
