<?xml version="1.0" encoding="utf-8"?>
<svg version="1.1" xmlns="http://www.w3.org/2000/svg" x="0px" y="0px" width="173" height="36" viewBox="0 0 173 36" style="enable-background:new 0 0 173 36;" xml:space="preserve">
  <style type="text/css">
    .st0 {
      fill: #F2F3F5;
      fill-rule: evenodd;
      clip-rule: evenodd;
    }

    .st1 {
      fill: url(#SVGID_1_);
    }

    .st2 {
      fill: url(#SVGID_2_);
    }

    .st3 {
      fill: url(#SVGID_3_);
    }

    .st4 {
      fill: url(#SVGID_4_);
    }

    .st5 {
      fill: url(#SVGID_5_);
    }

    .st6 {
      fill: url(#SVGID_6_);
    }

    .st7 {
      fill: url(#SVGID_7_);
    }

    .st8 {
      opacity: 0.3;
    }

    .st9 {
      fill: url(#SVGID_8_);
    }

    .st10 {
      opacity: 0.5;
    }

    .st11 {
      fill: url(#SVGID_9_);
    }

    .st12 {
      fill: url(#SVGID_10_);
    }

    .st13 {
      fill: url(#SVGID_11_);
    }

    .st14 {
      fill: url(#SVGID_12_);
    }

  </style>
  <path class="st0" d="M91.8,8.3c0-1-0.8-1.8-1.9-1.8c-1.1,0-1.9,0.8-1.9,1.8c0,1.1,0.8,1.9,1.9,1.9C91,10.2,91.8,9.4,91.8,8.3z
	 M122.7,7.8v8v8.1c0,0.6,0.2,0.8,0.8,0.8h1.8c0.7,0,0.8-0.2,0.8-0.8v-0.1c0-5.4,0-10.7,0-16.1c0-0.6-0.2-0.8-0.8-0.8h-1.8
	C122.8,6.9,122.7,7.1,122.7,7.8z M79.2,14.7L79.2,14.7c-0.2,0-0.4,0-0.6,0c-0.4,0-0.6-0.2-0.7-0.6c0-0.4,0-0.9,0-1.3
	c0-0.4,0.2-0.6,0.6-0.6c0.2,0,0.4,0,0.6,0h0c0.1,0,0.2,0,0.3,0v-0.7V9c0-0.6,0.2-0.8,0.8-0.8c0.6,0,1.3,0,1.9,0
	C82.8,8.3,83,8.5,83,9v2.6v0.5h1.8c0.8,0,0.9,0.2,0.9,0.9v1c0,0.5-0.2,0.7-0.7,0.7c-0.4,0-0.8,0-1.3,0h0h0h0h0c-0.2,0-0.4,0-0.7,0
	c0,0.1,0,0.3,0,0.4v0v5.4l0,0c0,0.1,0,0.3,0,0.4c0.1,0.7,0.5,1.1,1.2,1.2c0.1,0,0.2,0,0.3,0c0.1,0,0.2,0,0.3,0
	c0.4,0,0.7,0.2,0.7,0.7c0,0.3,0,0.6,0,0.9v0l0,0v0c0,0.1,0,0.3,0,0.4c0,0.3-0.2,0.6-0.5,0.6c-0.2,0-0.5,0-0.7,0
	c-0.8,0-1.6,0-2.4-0.1c-1.4-0.3-2.2-1.3-2.3-2.7c-0.1-0.6-0.1-1.2-0.1-1.8v0v-4.8c-0.1-0.2-0.1-0.3-0.1-0.5l0,0
	C79.5,14.7,79.3,14.7,79.2,14.7L79.2,14.7L79.2,14.7z M114,22c-1.4-0.1-2.6-1.3-2.8-2.7h0.5h5.7h2c0.6,0,0.8-0.2,0.8-0.8v0
	c0-0.5,0-1-0.1-1.5c-0.4-2.3-1.5-4-3.8-4.8c-2.3-0.8-4.5-0.4-6.4,1.2c-1.3,1.2-1.9,2.7-2,4.5c-0.2,3.6,2,6.6,5.8,6.9
	c2.1,0.2,3.9-0.4,5.4-1.9c0.4-0.4,0.4-0.7-0.1-1.1l-1.2-0.9c-0.4-0.3-0.6-0.3-1,0C116,21.8,115,22,114,22z M116.9,17.1h-5.6
	c0.1-1.4,1.4-2.6,2.9-2.6C115.6,14.5,116.7,15.7,116.9,17.1z M141.6,18c0,3.4-1.7,5.8-4.3,6.6c-2.9,0.9-5.9,0-7.5-2.3
	c-1.9-2.7-1.6-7.6,2-9.6c2.7-1.5,7-1.1,8.9,2.3C141.3,16,141.6,17.2,141.6,18z M135.1,21.6c1.8,0,3.1-1.3,3.1-3.2
	c0-1.9-1.3-3.3-3.1-3.3c-1.8,0-3.1,1.3-3.1,3.2C132,20.3,133.3,21.6,135.1,21.6z M156.5,18.4c0-3.8-2.6-6.5-6.4-6.5
	c-3.8,0-6.4,2.7-6.5,6.5c0,3.8,2.7,6.6,6.4,6.6C153.8,24.9,156.5,22.2,156.5,18.4z M151.5,15.4c1.1,0.5,1.7,1.6,1.7,3
	c0,1.5-0.8,2.7-2.1,3.1c-2.4,0.7-4.3-1-4.1-3.5C147.3,15.3,149.8,14.6,151.5,15.4z M162.5,13.4c0.1,0,0.1-0.1,0.1-0.1
	c0,0,0.1,0,0.1-0.1c1.4-1.3,3.1-1.6,4.9-1.1c2.6,0.7,4,2.5,4.4,5c0.4,2.3-0.1,4.5-1.9,6.2c-1.7,1.6-3.8,1.9-6,1.1
	c-0.3-0.1-0.6-0.3-0.9-0.5l0,0l0,0c-0.1-0.1-0.3-0.2-0.4-0.3l-0.3-0.2v0.5v5c0,0.7-0.2,0.8-0.8,0.8h-1.9c-0.5,0-0.7-0.2-0.7-0.7
	v-0.3V13c0-0.2,0-0.3,0-0.4c0.1-0.3,0.2-0.5,0.6-0.5c0.8,0,1.5,0,2.3,0c0.3,0,0.5,0.2,0.5,0.5V13.4z M165.6,21.6
	c1.8,0,3.1-1.3,3.1-3.2c0-1.9-1.3-3.3-3.1-3.3c-1.8,0-3.1,1.4-3.1,3.3C162.5,20.3,163.8,21.6,165.6,21.6z M59.1,13.1L59.1,13.1
	L59.1,13.1c0-0.1,0-0.3,0-0.4c0-0.4,0.2-0.6,0.6-0.6c0.8,0,1.5,0,2.2,0c0.4,0,0.5,0.2,0.6,0.6c0,0.1,0,0.1,0,0.2l0,0l0,0
	c0,0,0,0.1,0,0.1v10.7c0,0.7-0.2,0.9-0.9,0.9h-1.8c-0.6,0-0.7-0.2-0.8-0.8v-0.4l0,0c-0.1,0-0.1,0-0.1,0.1c-1.6,1.7-4.6,1.7-6.4,0.6
	c-1.7-1-2.6-2.6-2.9-4.5c-0.3-1.9,0-3.7,1.2-5.3c1.6-2.2,4.7-3,7-1.7c0.3,0.1,0.6,0.4,0.9,0.6v0c0.1,0.1,0.2,0.2,0.4,0.3
	C59.1,13.2,59.1,13.2,59.1,13.1L59.1,13.1L59.1,13.1L59.1,13.1L59.1,13.1L59.1,13.1L59.1,13.1L59.1,13.1L59.1,13.1z M56,21.6
	c1.8,0,3.1-1.3,3.1-3.3c0-1.9-1.3-3.3-3.1-3.3c-1.8,0-3.1,1.4-3.1,3.3C52.8,20.3,54.1,21.6,56,21.6z M65,17.9c0.1-2.2,1-4.2,3.4-5.4
	c2.4-1.2,5.4-0.8,7.3,1c0,0,0.1,0.1,0.1,0.1l0,0c0.1,0.1,0.2,0.2,0.3,0.3c0.3,0.3,0.3,0.6-0.1,0.9c-0.5,0.4-1,0.8-1.5,1.2l0,0
	c-0.3,0.3-0.6,0.1-0.9-0.2c-0.8-0.7-1.8-0.8-2.8-0.7c-1.5,0.3-2.5,1.6-2.5,3.2c0,1.3,0.5,2.3,1.7,2.9c1.2,0.6,2.4,0.5,3.6-0.3
	c0.5-0.4,0.7-0.4,1.1,0c0.1,0.1,0.3,0.2,0.4,0.3c0.3,0.2,0.6,0.4,0.8,0.6c0.4,0.3,0.4,0.6,0.1,1c-1.3,1.4-2.9,2-4.8,2
	C67.5,24.8,65,22.1,65,17.9z M100.6,19.4L100.6,19.4L100.6,19.4c-0.1,0.2-0.1,0.3-0.2,0.5c0,0-0.1,0-0.1,0c-0.2-0.5-0.4-1.1-0.6-1.6
	l0,0c-0.2-0.4-0.3-0.8-0.5-1.2l0,0c-0.6-1.5-1.1-2.9-1.7-4.4c-0.1-0.3-0.3-0.6-0.6-0.6c-0.8,0-1.6,0-2.4,0c-0.3,0-0.5,0.2-0.4,0.6
	c0,0.1,0.1,0.2,0.1,0.3c0,0,0,0.1,0,0.1c0.5,1.3,1,2.6,1.5,3.9c0.5,1.2,0.9,2.3,1.4,3.5c0.5,1.2,0.9,2.3,1.4,3.5
	c0.2,0.5,0.4,0.7,1,0.7c0.2,0,0.4,0,0.6,0c0.4,0,0.9,0,1.3,0c0.4,0,0.7-0.2,0.9-0.6c0.9-2.2,1.7-4.3,2.6-6.5l0,0
	c0.6-1.5,1.2-3.1,1.8-4.6c0.2-0.6,0-0.8-0.6-0.8h-1.9c-0.6,0-0.8,0.1-1,0.7c-0.3,0.8-0.6,1.6-1,2.4c-0.3,0.8-0.6,1.6-1,2.4
	C101.1,18.2,100.8,18.8,100.6,19.4L100.6,19.4z M88.2,18.4V13c0-0.7,0.2-0.9,0.9-0.9h1.8c0.6,0,0.8,0.2,0.8,0.8c0,1.8,0,3.7,0,5.5v0
	c0,1.8,0,3.7,0,5.5c0,0.6-0.2,0.8-0.8,0.8H89c-0.6,0-0.8-0.2-0.8-0.8C88.2,22,88.2,20.2,88.2,18.4L88.2,18.4z" />
  <g>

    <linearGradient id="SVGID_1_" gradientUnits="userSpaceOnUse" x1="26.1279" y1="36.3276" x2="10.2654" y2="5.2775" gradientTransform="matrix(1 0 0 -1 0 38)">
      <stop offset="1.405420e-03" style="stop-color:#ED7546" />
      <stop offset="1" style="stop-color:#F9B239" />
    </linearGradient>
    <path class="st1" d="M27.2,33.1c-8.1,5.4-19,3.1-24.3-5c-4-6-3.8-13.5-0.1-19.2c1.3-2,3-3.8,5.1-5.2c1.2-0.8,4-2.3,6.8-2.2
		c2.1,0.1,4.3,0.7,6.1,2c2.5,1.7,4.1,4.3,4.7,7.1c0.2,0.9,0.3,1.9,0.3,2.8c-1.2-1.5-3-2.6-5-3.2c-0.9-0.3-1.9-0.4-3-0.5
		c-5.6-0.2-10.2,3.5-10.4,8.3c-0.1,3.9,2.7,7.2,6.8,8.4c0.3,0.1,0.6,0.2,1,0.2c0.7,0.1,1.4,0.2,2.1,0.3h0c2.8-0.1,5.7-1.2,8.1-3.1
		c1.2-1,2.3-2.1,3.3-3.5c0.9-1.2,1.5-2.6,2-3.9c1.2-3.4,1.1-7-0.1-9.9c0.6,0.7,1.2,1.4,1.7,2.2C37.6,16.8,35.3,27.7,27.2,33.1z" />

    <linearGradient id="SVGID_2_" gradientUnits="userSpaceOnUse" x1="14.605" y1="15.8171" x2="23.5934" y2="30.9994" gradientTransform="matrix(1 0 0 -1 0 38)">
      <stop offset="1.405420e-03" style="stop-color:#ED7546" />
      <stop offset="1" style="stop-color:#F9B239" />
    </linearGradient>
    <path class="st2" d="M30.7,16.5c-0.5,1.3-1.1,2.6-2,3.9c-1,1.4-2.1,2.6-3.3,3.5c-2.2,1.7-4.6,2.8-7.1,3.1c2.9-1.6,5.3-4.3,6.5-7.8
		c0.7-2,1-4.1,0.9-6c0-0.8-0.1-1.7-0.3-2.5c-0.6-2.8-2.2-5.4-4.7-7.1C20.4,3.3,20,3,19.6,2.8c0,0-0.1,0-0.1-0.1
		c-1.6-0.8-3.5-1.2-5.7-1.1h0c0.5-0.2,1.7-0.7,2.3-0.9c3.5-1.2,7.7-0.9,10.7,1.2c1.7,1.2,3,2.8,3.8,4.6
		C31.8,9.5,31.8,13.1,30.7,16.5z" />

    <linearGradient id="SVGID_3_" gradientUnits="userSpaceOnUse" x1="22.197" y1="10.9584" x2="13.5267" y2="22.6991" gradientTransform="matrix(1 0 0 -1 0 38)">
      <stop offset="1.033400e-04" style="stop-color:#ED7546" />
      <stop offset="1" style="stop-color:#F9B239" />
    </linearGradient>
    <path class="st3" d="M15.3,13c-4,4-4.8,9.8-1.8,13.3c-3.7-1.4-6.2-4.6-6-8.2c0.2-4.8,4.8-8.5,10.4-8.3c0.7,0,1.3,0.1,2,0.2
		C18.2,10.7,16.7,11.6,15.3,13z" />

    <linearGradient id="SVGID_4_" gradientUnits="userSpaceOnUse" x1="31.0222" y1="36.3723" x2="10.9972" y2="17.8098" gradientTransform="matrix(1 0 0 -1 0 38)">
      <stop offset="1.033400e-04" style="stop-color:#ED7546" />
      <stop offset="1" style="stop-color:#FF6D35;stop-opacity:0" />
    </linearGradient>
    <path class="st4" d="M15.3,13c-4,4-4.8,9.8-1.8,13.3c-3.7-1.4-6.2-4.6-6-8.2c0.2-4.8,4.8-8.5,10.4-8.3c0.7,0,1.3,0.1,2,0.2
		C18.2,10.7,16.7,11.6,15.3,13z" />

    <linearGradient id="SVGID_5_" gradientUnits="userSpaceOnUse" x1="31.9331" y1="12.9715" x2="0.9299" y2="25.0858" gradientTransform="matrix(1 0 0 -1 0 38)">
      <stop offset="0" style="stop-color:#F9B239" />
      <stop offset="0.9999" style="stop-color:#F9B239;stop-opacity:0" />
    </linearGradient>
    <path class="st5" d="M27.2,33.1c-8.1,5.4-19,3.1-24.3-5c-4-6-3.8-13.5-0.1-19.2c1.3-2,3-3.8,5.1-5.2C9.1,3,12,1.5,14.7,1.6
		c2.1,0.1,4.3,0.7,6.1,2c2.5,1.7,4.1,4.3,4.7,7.1c0.2,0.9,0.3,1.9,0.3,2.8c-1.2-1.5-3.2-2.7-5-3.2c-0.9-0.3-1.9-0.4-3-0.5
		c-5.6-0.2-10.2,3.5-10.4,8.3c-0.1,3.9,2.7,7.2,6.8,8.4c0.3,0.1,0.6,0.2,1,0.2c0.7,0.1,1.4,0.2,2.1,0.3h0c2.8-0.1,5.7-1.2,8.1-3.1
		c1.2-1,2.3-2.1,3.3-3.5c0.9-1.2,1.5-2.6,2-3.9c1.2-3.4,1.1-7-0.1-9.9c0.6,0.7,1.2,1.4,1.7,2.2C37.6,16.8,35.3,27.7,27.2,33.1z" />

    <linearGradient id="SVGID_6_" gradientUnits="userSpaceOnUse" x1="9.2135" y1="43.4797" x2="17.651" y2="19.2922" gradientTransform="matrix(1 0 0 -1 0 38)">
      <stop offset="0" style="stop-color:#F9B239" />
      <stop offset="0.9999" style="stop-color:#ED7546;stop-opacity:0" />
    </linearGradient>
    <path class="st6" d="M27.2,33.1c-8.1,5.4-19,3.1-24.3-5c-4-6-3.8-13.5-0.1-19.2c1.3-2,3-3.8,5.1-5.2C9.1,3,12,1.5,14.7,1.6
		c2.1,0.1,4.3,0.7,6.1,2c2.5,1.7,4.1,4.3,4.7,7.1c0.2,0.9,0.3,1.9,0.3,2.8c-1.2-1.5-3.2-2.7-5-3.2c-0.9-0.3-1.9-0.4-3-0.5
		c-5.6-0.2-10.2,3.5-10.4,8.3c-0.1,3.9,2.7,7.2,6.8,8.4c0.3,0.1,0.6,0.2,1,0.2c0.7,0.1,1.4,0.2,2.1,0.3h0c2.8-0.1,5.7-1.2,8.1-3.1
		c1.2-1,2.3-2.1,3.3-3.5c0.9-1.2,1.5-2.6,2-3.9c1.2-3.4,1.1-7-0.1-9.9c0.6,0.7,1.2,1.4,1.7,2.2C37.6,16.8,35.3,27.7,27.2,33.1z" />

    <linearGradient id="SVGID_7_" gradientUnits="userSpaceOnUse" x1="43.7809" y1="2.7352" x2="11.4935" y2="22.9852" gradientTransform="matrix(1 0 0 -1 0 38)">
      <stop offset="0" style="stop-color:#FFFFFF" />
      <stop offset="0.9999" style="stop-color:#F9B239;stop-opacity:0" />
    </linearGradient>
    <path class="st7" d="M27.2,33.1c-8.1,5.4-19,3.1-24.3-5c-4-6-3.8-13.5-0.1-19.2c1.3-2,3-3.8,5.1-5.2C9.1,3,12,1.5,14.7,1.6
		c2.1,0.1,4.3,0.7,6.1,2c2.5,1.7,4.1,4.3,4.7,7.1c0.2,0.9,0.3,1.9,0.3,2.8c-1.2-1.5-3.2-2.7-5-3.2c-0.9-0.3-1.9-0.4-3-0.5
		c-5.6-0.2-10.2,3.5-10.4,8.3c-0.1,3.9,2.7,7.2,6.8,8.4c0.3,0.1,0.6,0.2,1,0.2c0.7,0.1,1.4,0.2,2.1,0.3h0c2.8-0.1,5.7-1.2,8.1-3.1
		c1.2-1,2.3-2.1,3.3-3.5c0.9-1.2,1.5-2.6,2-3.9c1.2-3.4,1.1-7-0.1-9.9c0.6,0.7,1.2,1.4,1.7,2.2C37.6,16.8,35.3,27.7,27.2,33.1z" />
    <g class="st8">

      <linearGradient id="SVGID_8_" gradientUnits="userSpaceOnUse" x1="12.0608" y1="27.3695" x2="20.4619" y2="14.6658" gradientTransform="matrix(1 0 0 -1 0 38)">
        <stop offset="0" style="stop-color:#FFFFFF" />
        <stop offset="1" style="stop-color:#FFFFFF" />
      </linearGradient>
      <path class="st9" d="M25.7,13.4c-1.2-1.5-3.3-2.8-5.1-3.3c-1-0.3-2-0.5-3-0.5C11.8,9.4,7,13.2,6.9,18.1c-0.1,4,2.6,7.1,6.8,8.3
			c0.3,0.1,1.6,0.4,1.6,0.4c-0.3-0.1-0.6-0.2-1-0.2c-4.1-1.2-6.9-4.6-6.8-8.4c0.2-4.8,4.8-8.5,10.4-8.3c1,0,2,0.2,3,0.5
			C22.6,10.8,24.6,12,25.7,13.4L25.7,13.4z" />
    </g>
    <g class="st10">

      <linearGradient id="SVGID_9_" gradientUnits="userSpaceOnUse" x1="21.2139" y1="25.2626" x2="27.9561" y2="15.0673" gradientTransform="matrix(1 0 0 -1 0 38)">
        <stop offset="0" style="stop-color:#FFFFFF" />
        <stop offset="1" style="stop-color:#FFFFFF" />
      </linearGradient>
      <path class="st11" d="M25.5,24.6c1.2-0.9,2.4-2,3.4-3.4c0.9-1.2,1.5-2.6,2-3.9C32,13.9,32,10,30.8,7.1l-0.2-0.5
			c1.3,2.9,1.3,6.5,0.1,9.9c-0.5,1.3-1.1,2.6-2,3.9c-1,1.4-2.1,2.6-3.3,3.5c-2.4,1.9-5.3,3-8.1,3.1C17.3,27.1,21.4,27.6,25.5,24.6z" />
    </g>

    <linearGradient id="SVGID_10_" gradientUnits="userSpaceOnUse" x1="9.9371" y1="25.2277" x2="28.2162" y2="23.8681" gradientTransform="matrix(1 0 0 -1 0 38)">
      <stop offset="1.405420e-03" style="stop-color:#ED7546" />
      <stop offset="0.738" style="stop-color:#FF6D35;stop-opacity:0" />
    </linearGradient>
    <path class="st12" d="M30.7,16.5c-0.5,1.3-1.1,2.6-2,3.9c-1,1.4-2.1,2.6-3.3,3.5c-2.2,1.7-4.6,2.8-7.1,3.1c2.9-1.6,5.3-4.3,6.5-7.8
		c0.7-2,1-4.1,0.9-6c0-0.8-0.1-1.7-0.3-2.5c-0.6-2.8-2.2-5.4-4.7-7.1C20.4,3.3,20,3,19.6,2.8c0,0-0.1,0-0.1-0.1
		c-1.6-0.8-3.5-1.2-5.7-1.1h0c0.5-0.2,1.7-0.7,2.3-0.9c3.5-1.2,7.7-0.9,10.7,1.2c1.7,1.2,3,2.8,3.8,4.6
		C31.8,9.5,31.8,13.1,30.7,16.5z" />

    <linearGradient id="SVGID_11_" gradientUnits="userSpaceOnUse" x1="28.9685" y1="44.9167" x2="18.731" y2="20.7292" gradientTransform="matrix(1 0 0 -1 0 38)">
      <stop offset="1.405420e-03" style="stop-color:#FFFFFF" />
      <stop offset="0.738" style="stop-color:#FF6D35;stop-opacity:0" />
    </linearGradient>
    <path class="st13" d="M30.7,16.5c-0.5,1.3-1.1,2.6-2,3.9c-1,1.4-2.1,2.6-3.3,3.5c-2.2,1.7-4.6,2.8-7.1,3.1c2.9-1.6,5.3-4.3,6.5-7.8
		c0.7-2,1-4.1,0.9-6c0-0.8-0.1-1.7-0.3-2.5c-0.6-2.8-2.2-5.4-4.7-7.1C20.4,3.3,20,3,19.6,2.8c0,0-0.1,0-0.1-0.1
		c-1.6-0.8-3.5-1.2-5.7-1.1h0c0.5-0.2,1.7-0.7,2.3-0.9c3.5-1.2,7.7-0.9,10.7,1.2c1.7,1.2,3,2.8,3.8,4.6
		C31.8,9.5,31.8,13.1,30.7,16.5z" />
    <g class="st10">

      <linearGradient id="SVGID_12_" gradientUnits="userSpaceOnUse" x1="16.1902" y1="38.057" x2="25.348" y2="24.2091" gradientTransform="matrix(1 0 0 -1 0 38)">
        <stop offset="0" style="stop-color:#FFFFFF" />
        <stop offset="1" style="stop-color:#FFFFFF" />
      </linearGradient>
      <path class="st14" d="M15.4,1.4c2-0.1,3.7,0.3,5.6,1.6c2.5,1.8,4.1,4.8,4.7,7.7c0.2,1.3,0.1,2.9,0.1,2.9c0-1-0.1-1.9-0.3-2.8
			c-0.6-2.8-2.2-5.4-4.7-7.1c-1.9-1.3-4-1.9-6.1-2c-0.3,0-0.7,0-1,0C13.7,1.6,15.1,1.4,15.4,1.4z" />
    </g>
  </g>
</svg>
