<svg width="160" height="160" viewBox="0 0 160 160" fill="none" xmlns="http://www.w3.org/2000/svg" role="img" aria-label="Queen - The Fleet"><defs><linearGradient id="q3" x1="80" y1="18" x2="80" y2="56" gradientUnits="userSpaceOnUse"><stop offset="0" stop-color="#F58BC0"/><stop offset="1" stop-color="#B93A78"/></linearGradient></defs><path d="M 80 58 L 80 74 M 80 74 L 40 92 M 80 74 L 80 96 M 80 74 L 120 92" stroke="#E0569B" stroke-width="3.5" stroke-linecap="round" stroke-opacity="0.6"/><path d="M 101.00 37.00 L 90.50 55.19 L 69.50 55.19 L 59.00 37.00 L 69.50 18.81 L 90.50 18.81 Z" fill="url(#q3)" stroke="#F9B8D6" stroke-width="1.6" stroke-linejoin="round"/><path d="M 54.00 106.00 L 47.00 118.12 L 33.00 118.12 L 26.00 106.00 L 33.00 93.88 L 47.00 93.88 Z" fill="none" stroke="#E0569B" stroke-width="5" stroke-linejoin="round"/><path d="M 94.00 110.00 L 87.00 122.12 L 73.00 122.12 L 66.00 110.00 L 73.00 97.88 L 87.00 97.88 Z" fill="none" stroke="#E0569B" stroke-width="5" stroke-linejoin="round"/><path d="M 134.00 106.00 L 127.00 118.12 L 113.00 118.12 L 106.00 106.00 L 113.00 93.88 L 127.00 93.88 Z" fill="none" stroke="#E0569B" stroke-width="5" stroke-linejoin="round"/></svg>
