<svg width="160" height="160" viewBox="0 0 160 160" fill="none" xmlns="http://www.w3.org/2000/svg" role="img" aria-label="Honeycomb"><path d="M 146.57 80.0 L 134.57 100.78 L 110.57 100.78 L 98.57 80.0 L 110.57 59.22 L 134.57 59.22 Z" fill="none" stroke="#F7A823" stroke-width="5.5" stroke-linejoin="round"/><path d="M 125.28 116.87 L 113.28 137.65 L 89.28 137.65 L 77.28 116.87 L 89.28 96.08 L 113.28 96.08 Z" fill="none" stroke="#F7A823" stroke-width="5.5" stroke-linejoin="round"/><path d="M 82.72 116.87 L 70.72 137.65 L 46.72 137.65 L 34.72 116.87 L 46.72 96.08 L 70.72 96.08 Z" fill="none" stroke="#F7A823" stroke-width="5.5" stroke-linejoin="round"/><path d="M 61.43 80.0 L 49.43 100.78 L 25.43 100.78 L 13.43 80.0 L 25.43 59.22 L 49.43 59.22 Z" fill="none" stroke="#F7A823" stroke-width="5.5" stroke-linejoin="round"/><path d="M 82.72 43.13 L 70.72 63.92 L 46.72 63.92 L 34.72 43.13 L 46.72 22.35 L 70.72 22.35 Z" fill="none" stroke="#F7A823" stroke-width="5.5" stroke-linejoin="round"/><path d="M 125.28 43.13 L 113.28 63.92 L 89.28 63.92 L 77.28 43.13 L 89.28 22.35 L 113.28 22.35 Z" fill="none" stroke="#F7A823" stroke-width="5.5" stroke-linejoin="round"/><path d="M 104.0 80.0 L 92.0 100.78 L 68.0 100.78 L 56.0 80.0 L 68.0 59.22 L 92.0 59.22 Z" fill="#F7A823"/></svg>
