<svg width="160" height="160" viewBox="0 0 160 160" fill="none" xmlns="http://www.w3.org/2000/svg" role="img" aria-label="Honeycomb"><defs><linearGradient id="bg" x1="80" y1="56" x2="80" y2="104" gradientUnits="userSpaceOnUse"><stop offset="0" stop-color="#FFC75A"/><stop offset="1" stop-color="#E0860C"/></linearGradient></defs><path d="M 146.77 80.0 L 134.77 100.78 L 110.77 100.78 L 98.77 80.0 L 110.77 59.22 L 134.77 59.22 Z" fill="none" stroke="#F7A823" stroke-width="5" stroke-linejoin="round"/><path d="M 125.38 117.04 L 113.38 137.82 L 89.38 137.82 L 77.38 117.04 L 89.38 96.25 L 113.38 96.25 Z" fill="none" stroke="#F7A823" stroke-width="5" stroke-linejoin="round"/><path d="M 82.62 117.04 L 70.62 137.82 L 46.62 137.82 L 34.62 117.04 L 46.62 96.25 L 70.62 96.25 Z" fill="none" stroke="#F7A823" stroke-width="5" stroke-linejoin="round"/><path d="M 61.23 80.0 L 49.23 100.78 L 25.23 100.78 L 13.23 80.0 L 25.23 59.22 L 49.23 59.22 Z" fill="none" stroke="#F7A823" stroke-width="5" stroke-linejoin="round"/><path d="M 82.62 42.96 L 70.62 63.75 L 46.62 63.75 L 34.62 42.96 L 46.62 22.18 L 70.62 22.18 Z" fill="none" stroke="#F7A823" stroke-width="5" stroke-linejoin="round"/><path d="M 125.38 42.96 L 113.38 63.75 L 89.38 63.75 L 77.38 42.96 L 89.38 22.18 L 113.38 22.18 Z" fill="none" stroke="#F7A823" stroke-width="5" stroke-linejoin="round"/><path d="M 104.0 80.0 L 92.0 100.78 L 68.0 100.78 L 56.0 80.0 L 68.0 59.22 L 92.0 59.22 Z" fill="url(#bg)" stroke="#FFD27A" stroke-width="1.6" stroke-linejoin="round"/></svg>
