<svg width="160" height="160" viewBox="0 0 160 160" fill="none" xmlns="http://www.w3.org/2000/svg" role="img" aria-label="Honeycomb"><defs><linearGradient id="bg" x1="80" y1="56" x2="80" y2="104" gradientUnits="userSpaceOnUse"><stop offset="0" stop-color="#FFC75A"/><stop offset="1" stop-color="#E0860C"/></linearGradient></defs><path d="M 146.17 80.0 L 134.17 100.78 L 110.17 100.78 L 98.17 80.0 L 110.17 59.22 L 134.17 59.22 Z" fill="none" stroke="#F7A823" stroke-width="6.5" stroke-linejoin="round"/><path d="M 125.08 116.52 L 113.08 137.3 L 89.08 137.3 L 77.08 116.52 L 89.08 95.74 L 113.08 95.74 Z" fill="none" stroke="#F7A823" stroke-width="6.5" stroke-linejoin="round"/><path d="M 82.92 116.52 L 70.92 137.3 L 46.92 137.3 L 34.92 116.52 L 46.92 95.74 L 70.92 95.74 Z" fill="none" stroke="#F7A823" stroke-width="6.5" stroke-linejoin="round"/><path d="M 61.83 80.0 L 49.83 100.78 L 25.83 100.78 L 13.83 80.0 L 25.83 59.22 L 49.83 59.22 Z" fill="none" stroke="#F7A823" stroke-width="6.5" stroke-linejoin="round"/><path d="M 82.92 43.48 L 70.92 64.26 L 46.92 64.26 L 34.92 43.48 L 46.92 22.7 L 70.92 22.7 Z" fill="none" stroke="#F7A823" stroke-width="6.5" stroke-linejoin="round"/><path d="M 125.08 43.48 L 113.08 64.26 L 89.08 64.26 L 77.08 43.48 L 89.08 22.7 L 113.08 22.7 Z" fill="none" stroke="#F7A823" stroke-width="6.5" stroke-linejoin="round"/><path d="M 104.0 80.0 L 92.0 100.78 L 68.0 100.78 L 56.0 80.0 L 68.0 59.22 L 92.0 59.22 Z" fill="url(#bg)" stroke="#FFD27A" stroke-width="1.6" stroke-linejoin="round"/></svg>
