<svg xmlns="http://www.w3.org/2000/svg" width="470" height="436"><defs><linearGradient id="bg" x1="80" y1="56" x2="80" y2="104" gradientUnits="userSpaceOnUse"><stop offset="0" stop-color="#FFC75A"/><stop offset="1" stop-color="#E0860C"/></linearGradient></defs><rect width="100%" height="100%" fill="#16130D"/><text x="40" y="46" font-family="Inter,sans-serif" font-size="15" font-weight="700" fill="#8A8578">Clean comb</text><g transform="translate(40,60) scale(0.62)"><defs><linearGradient id="bg" x1="80" y1="56" x2="80" y2="104" gradientUnits="userSpaceOnUse"><stop offset="0" stop-color="#FFC75A"/><stop offset="1" stop-color="#E0860C"/></linearGradient></defs><path d="M 146.77 80.0 L 134.77 100.78 L 110.77 100.78 L 98.77 80.0 L 110.77 59.22 L 134.77 59.22 Z" fill="none" stroke="#F7A823" stroke-width="5" stroke-linejoin="round"/><path d="M 125.38 117.04 L 113.38 137.82 L 89.38 137.82 L 77.38 117.04 L 89.38 96.25 L 113.38 96.25 Z" fill="none" stroke="#F7A823" stroke-width="5" stroke-linejoin="round"/><path d="M 82.62 117.04 L 70.62 137.82 L 46.62 137.82 L 34.62 117.04 L 46.62 96.25 L 70.62 96.25 Z" fill="none" stroke="#F7A823" stroke-width="5" stroke-linejoin="round"/><path d="M 61.23 80.0 L 49.23 100.78 L 25.23 100.78 L 13.23 80.0 L 25.23 59.22 L 49.23 59.22 Z" fill="none" stroke="#F7A823" stroke-width="5" stroke-linejoin="round"/><path d="M 82.62 42.96 L 70.62 63.75 L 46.62 63.75 L 34.62 42.96 L 46.62 22.18 L 70.62 22.18 Z" fill="none" stroke="#F7A823" stroke-width="5" stroke-linejoin="round"/><path d="M 125.38 42.96 L 113.38 63.75 L 89.38 63.75 L 77.38 42.96 L 89.38 22.18 L 113.38 22.18 Z" fill="none" stroke="#F7A823" stroke-width="5" stroke-linejoin="round"/><path d="M 104.0 80.0 L 92.0 100.78 L 68.0 100.78 L 56.0 80.0 L 68.0 59.22 L 92.0 59.22 Z" fill="url(#bg)" stroke="#FFD27A" stroke-width="1.6" stroke-linejoin="round"/></g><g transform="translate(180,76) scale(0.30)"><defs><linearGradient id="bg" x1="80" y1="56" x2="80" y2="104" gradientUnits="userSpaceOnUse"><stop offset="0" stop-color="#FFC75A"/><stop offset="1" stop-color="#E0860C"/></linearGradient></defs><path d="M 146.77 80.0 L 134.77 100.78 L 110.77 100.78 L 98.77 80.0 L 110.77 59.22 L 134.77 59.22 Z" fill="none" stroke="#F7A823" stroke-width="5" stroke-linejoin="round"/><path d="M 125.38 117.04 L 113.38 137.82 L 89.38 137.82 L 77.38 117.04 L 89.38 96.25 L 113.38 96.25 Z" fill="none" stroke="#F7A823" stroke-width="5" stroke-linejoin="round"/><path d="M 82.62 117.04 L 70.62 137.82 L 46.62 137.82 L 34.62 117.04 L 46.62 96.25 L 70.62 96.25 Z" fill="none" stroke="#F7A823" stroke-width="5" stroke-linejoin="round"/><path d="M 61.23 80.0 L 49.23 100.78 L 25.23 100.78 L 13.23 80.0 L 25.23 59.22 L 49.23 59.22 Z" fill="none" stroke="#F7A823" stroke-width="5" stroke-linejoin="round"/><path d="M 82.62 42.96 L 70.62 63.75 L 46.62 63.75 L 34.62 42.96 L 46.62 22.18 L 70.62 22.18 Z" fill="none" stroke="#F7A823" stroke-width="5" stroke-linejoin="round"/><path d="M 125.38 42.96 L 113.38 63.75 L 89.38 63.75 L 77.38 42.96 L 89.38 22.18 L 113.38 22.18 Z" fill="none" stroke="#F7A823" stroke-width="5" stroke-linejoin="round"/><path d="M 104.0 80.0 L 92.0 100.78 L 68.0 100.78 L 56.0 80.0 L 68.0 59.22 L 92.0 59.22 Z" fill="url(#bg)" stroke="#FFD27A" stroke-width="1.6" stroke-linejoin="round"/></g><text x="232" y="104" font-family="Inter,sans-serif" font-size="11" fill="#6A6557">48px</text><g transform="translate(290,86) scale(0.20)"><defs><linearGradient id="bg" x1="80" y1="56" x2="80" y2="104" gradientUnits="userSpaceOnUse"><stop offset="0" stop-color="#FFC75A"/><stop offset="1" stop-color="#E0860C"/></linearGradient></defs><path d="M 146.77 80.0 L 134.77 100.78 L 110.77 100.78 L 98.77 80.0 L 110.77 59.22 L 134.77 59.22 Z" fill="none" stroke="#F7A823" stroke-width="5" stroke-linejoin="round"/><path d="M 125.38 117.04 L 113.38 137.82 L 89.38 137.82 L 77.38 117.04 L 89.38 96.25 L 113.38 96.25 Z" fill="none" stroke="#F7A823" stroke-width="5" stroke-linejoin="round"/><path d="M 82.62 117.04 L 70.62 137.82 L 46.62 137.82 L 34.62 117.04 L 46.62 96.25 L 70.62 96.25 Z" fill="none" stroke="#F7A823" stroke-width="5" stroke-linejoin="round"/><path d="M 61.23 80.0 L 49.23 100.78 L 25.23 100.78 L 13.23 80.0 L 25.23 59.22 L 49.23 59.22 Z" fill="none" stroke="#F7A823" stroke-width="5" stroke-linejoin="round"/><path d="M 82.62 42.96 L 70.62 63.75 L 46.62 63.75 L 34.62 42.96 L 46.62 22.18 L 70.62 22.18 Z" fill="none" stroke="#F7A823" stroke-width="5" stroke-linejoin="round"/><path d="M 125.38 42.96 L 113.38 63.75 L 89.38 63.75 L 77.38 42.96 L 89.38 22.18 L 113.38 22.18 Z" fill="none" stroke="#F7A823" stroke-width="5" stroke-linejoin="round"/><path d="M 104.0 80.0 L 92.0 100.78 L 68.0 100.78 L 56.0 80.0 L 68.0 59.22 L 92.0 59.22 Z" fill="url(#bg)" stroke="#FFD27A" stroke-width="1.6" stroke-linejoin="round"/></g><text x="320" y="104" font-family="Inter,sans-serif" font-size="11" fill="#6A6557">32px</text><g transform="translate(380,94) scale(0.10)"><defs><linearGradient id="bg" x1="80" y1="56" x2="80" y2="104" gradientUnits="userSpaceOnUse"><stop offset="0" stop-color="#FFC75A"/><stop offset="1" stop-color="#E0860C"/></linearGradient></defs><path d="M 146.77 80.0 L 134.77 100.78 L 110.77 100.78 L 98.77 80.0 L 110.77 59.22 L 134.77 59.22 Z" fill="none" stroke="#F7A823" stroke-width="5" stroke-linejoin="round"/><path d="M 125.38 117.04 L 113.38 137.82 L 89.38 137.82 L 77.38 117.04 L 89.38 96.25 L 113.38 96.25 Z" fill="none" stroke="#F7A823" stroke-width="5" stroke-linejoin="round"/><path d="M 82.62 117.04 L 70.62 137.82 L 46.62 137.82 L 34.62 117.04 L 46.62 96.25 L 70.62 96.25 Z" fill="none" stroke="#F7A823" stroke-width="5" stroke-linejoin="round"/><path d="M 61.23 80.0 L 49.23 100.78 L 25.23 100.78 L 13.23 80.0 L 25.23 59.22 L 49.23 59.22 Z" fill="none" stroke="#F7A823" stroke-width="5" stroke-linejoin="round"/><path d="M 82.62 42.96 L 70.62 63.75 L 46.62 63.75 L 34.62 42.96 L 46.62 22.18 L 70.62 22.18 Z" fill="none" stroke="#F7A823" stroke-width="5" stroke-linejoin="round"/><path d="M 125.38 42.96 L 113.38 63.75 L 89.38 63.75 L 77.38 42.96 L 89.38 22.18 L 113.38 22.18 Z" fill="none" stroke="#F7A823" stroke-width="5" stroke-linejoin="round"/><path d="M 104.0 80.0 L 92.0 100.78 L 68.0 100.78 L 56.0 80.0 L 68.0 59.22 L 92.0 59.22 Z" fill="url(#bg)" stroke="#FFD27A" stroke-width="1.6" stroke-linejoin="round"/></g><text x="396" y="104" font-family="Inter,sans-serif" font-size="11" fill="#6A6557">16px</text><text x="40" y="176" font-family="Inter,sans-serif" font-size="15" font-weight="700" fill="#8A8578">Active cells</text><g transform="translate(40,190) scale(0.62)"><defs><linearGradient id="bg" x1="80" y1="56" x2="80" y2="104" gradientUnits="userSpaceOnUse"><stop offset="0" stop-color="#FFC75A"/><stop offset="1" stop-color="#E0860C"/></linearGradient></defs><path d="M 146.77 80.0 L 134.77 100.78 L 110.77 100.78 L 98.77 80.0 L 110.77 59.22 L 134.77 59.22 Z" fill="none" stroke="#F7A823" stroke-width="5" stroke-linejoin="round"/><path d="M 125.38 117.04 L 113.38 137.82 L 89.38 137.82 L 77.38 117.04 L 89.38 96.25 L 113.38 96.25 Z" fill="none" stroke="#F7A823" stroke-width="5" stroke-linejoin="round"/><path d="M 82.62 117.04 L 70.62 137.82 L 46.62 137.82 L 34.62 117.04 L 46.62 96.25 L 70.62 96.25 Z" fill="#F7A823" fill-opacity="0.16" stroke="#F7A823" stroke-width="5" stroke-linejoin="round"/><path d="M 61.23 80.0 L 49.23 100.78 L 25.23 100.78 L 13.23 80.0 L 25.23 59.22 L 49.23 59.22 Z" fill="none" stroke="#F7A823" stroke-width="5" stroke-linejoin="round"/><path d="M 82.62 42.96 L 70.62 63.75 L 46.62 63.75 L 34.62 42.96 L 46.62 22.18 L 70.62 22.18 Z" fill="none" stroke="#F7A823" stroke-width="5" stroke-linejoin="round"/><path d="M 125.38 42.96 L 113.38 63.75 L 89.38 63.75 L 77.38 42.96 L 89.38 22.18 L 113.38 22.18 Z" fill="#F7A823" fill-opacity="0.16" stroke="#F7A823" stroke-width="5" stroke-linejoin="round"/><path d="M 104.0 80.0 L 92.0 100.78 L 68.0 100.78 L 56.0 80.0 L 68.0 59.22 L 92.0 59.22 Z" fill="url(#bg)" stroke="#FFD27A" stroke-width="1.6" stroke-linejoin="round"/></g><g transform="translate(180,206) scale(0.30)"><defs><linearGradient id="bg" x1="80" y1="56" x2="80" y2="104" gradientUnits="userSpaceOnUse"><stop offset="0" stop-color="#FFC75A"/><stop offset="1" stop-color="#E0860C"/></linearGradient></defs><path d="M 146.77 80.0 L 134.77 100.78 L 110.77 100.78 L 98.77 80.0 L 110.77 59.22 L 134.77 59.22 Z" fill="none" stroke="#F7A823" stroke-width="5" stroke-linejoin="round"/><path d="M 125.38 117.04 L 113.38 137.82 L 89.38 137.82 L 77.38 117.04 L 89.38 96.25 L 113.38 96.25 Z" fill="none" stroke="#F7A823" stroke-width="5" stroke-linejoin="round"/><path d="M 82.62 117.04 L 70.62 137.82 L 46.62 137.82 L 34.62 117.04 L 46.62 96.25 L 70.62 96.25 Z" fill="#F7A823" fill-opacity="0.16" stroke="#F7A823" stroke-width="5" stroke-linejoin="round"/><path d="M 61.23 80.0 L 49.23 100.78 L 25.23 100.78 L 13.23 80.0 L 25.23 59.22 L 49.23 59.22 Z" fill="none" stroke="#F7A823" stroke-width="5" stroke-linejoin="round"/><path d="M 82.62 42.96 L 70.62 63.75 L 46.62 63.75 L 34.62 42.96 L 46.62 22.18 L 70.62 22.18 Z" fill="none" stroke="#F7A823" stroke-width="5" stroke-linejoin="round"/><path d="M 125.38 42.96 L 113.38 63.75 L 89.38 63.75 L 77.38 42.96 L 89.38 22.18 L 113.38 22.18 Z" fill="#F7A823" fill-opacity="0.16" stroke="#F7A823" stroke-width="5" stroke-linejoin="round"/><path d="M 104.0 80.0 L 92.0 100.78 L 68.0 100.78 L 56.0 80.0 L 68.0 59.22 L 92.0 59.22 Z" fill="url(#bg)" stroke="#FFD27A" stroke-width="1.6" stroke-linejoin="round"/></g><text x="232" y="234" font-family="Inter,sans-serif" font-size="11" fill="#6A6557">48px</text><g transform="translate(290,216) scale(0.20)"><defs><linearGradient id="bg" x1="80" y1="56" x2="80" y2="104" gradientUnits="userSpaceOnUse"><stop offset="0" stop-color="#FFC75A"/><stop offset="1" stop-color="#E0860C"/></linearGradient></defs><path d="M 146.77 80.0 L 134.77 100.78 L 110.77 100.78 L 98.77 80.0 L 110.77 59.22 L 134.77 59.22 Z" fill="none" stroke="#F7A823" stroke-width="5" stroke-linejoin="round"/><path d="M 125.38 117.04 L 113.38 137.82 L 89.38 137.82 L 77.38 117.04 L 89.38 96.25 L 113.38 96.25 Z" fill="none" stroke="#F7A823" stroke-width="5" stroke-linejoin="round"/><path d="M 82.62 117.04 L 70.62 137.82 L 46.62 137.82 L 34.62 117.04 L 46.62 96.25 L 70.62 96.25 Z" fill="#F7A823" fill-opacity="0.16" stroke="#F7A823" stroke-width="5" stroke-linejoin="round"/><path d="M 61.23 80.0 L 49.23 100.78 L 25.23 100.78 L 13.23 80.0 L 25.23 59.22 L 49.23 59.22 Z" fill="none" stroke="#F7A823" stroke-width="5" stroke-linejoin="round"/><path d="M 82.62 42.96 L 70.62 63.75 L 46.62 63.75 L 34.62 42.96 L 46.62 22.18 L 70.62 22.18 Z" fill="none" stroke="#F7A823" stroke-width="5" stroke-linejoin="round"/><path d="M 125.38 42.96 L 113.38 63.75 L 89.38 63.75 L 77.38 42.96 L 89.38 22.18 L 113.38 22.18 Z" fill="#F7A823" fill-opacity="0.16" stroke="#F7A823" stroke-width="5" stroke-linejoin="round"/><path d="M 104.0 80.0 L 92.0 100.78 L 68.0 100.78 L 56.0 80.0 L 68.0 59.22 L 92.0 59.22 Z" fill="url(#bg)" stroke="#FFD27A" stroke-width="1.6" stroke-linejoin="round"/></g><text x="320" y="234" font-family="Inter,sans-serif" font-size="11" fill="#6A6557">32px</text><g transform="translate(380,224) scale(0.10)"><defs><linearGradient id="bg" x1="80" y1="56" x2="80" y2="104" gradientUnits="userSpaceOnUse"><stop offset="0" stop-color="#FFC75A"/><stop offset="1" stop-color="#E0860C"/></linearGradient></defs><path d="M 146.77 80.0 L 134.77 100.78 L 110.77 100.78 L 98.77 80.0 L 110.77 59.22 L 134.77 59.22 Z" fill="none" stroke="#F7A823" stroke-width="5" stroke-linejoin="round"/><path d="M 125.38 117.04 L 113.38 137.82 L 89.38 137.82 L 77.38 117.04 L 89.38 96.25 L 113.38 96.25 Z" fill="none" stroke="#F7A823" stroke-width="5" stroke-linejoin="round"/><path d="M 82.62 117.04 L 70.62 137.82 L 46.62 137.82 L 34.62 117.04 L 46.62 96.25 L 70.62 96.25 Z" fill="#F7A823" fill-opacity="0.16" stroke="#F7A823" stroke-width="5" stroke-linejoin="round"/><path d="M 61.23 80.0 L 49.23 100.78 L 25.23 100.78 L 13.23 80.0 L 25.23 59.22 L 49.23 59.22 Z" fill="none" stroke="#F7A823" stroke-width="5" stroke-linejoin="round"/><path d="M 82.62 42.96 L 70.62 63.75 L 46.62 63.75 L 34.62 42.96 L 46.62 22.18 L 70.62 22.18 Z" fill="none" stroke="#F7A823" stroke-width="5" stroke-linejoin="round"/><path d="M 125.38 42.96 L 113.38 63.75 L 89.38 63.75 L 77.38 42.96 L 89.38 22.18 L 113.38 22.18 Z" fill="#F7A823" fill-opacity="0.16" stroke="#F7A823" stroke-width="5" stroke-linejoin="round"/><path d="M 104.0 80.0 L 92.0 100.78 L 68.0 100.78 L 56.0 80.0 L 68.0 59.22 L 92.0 59.22 Z" fill="url(#bg)" stroke="#FFD27A" stroke-width="1.6" stroke-linejoin="round"/></g><text x="396" y="234" font-family="Inter,sans-serif" font-size="11" fill="#6A6557">16px</text><text x="40" y="306" font-family="Inter,sans-serif" font-size="15" font-weight="700" fill="#8A8578">Bolder</text><g transform="translate(40,320) scale(0.62)"><defs><linearGradient id="bg" x1="80" y1="56" x2="80" y2="104" gradientUnits="userSpaceOnUse"><stop offset="0" stop-color="#FFC75A"/><stop offset="1" stop-color="#E0860C"/></linearGradient></defs><path d="M 146.17 80.0 L 134.17 100.78 L 110.17 100.78 L 98.17 80.0 L 110.17 59.22 L 134.17 59.22 Z" fill="none" stroke="#F7A823" stroke-width="6.5" stroke-linejoin="round"/><path d="M 125.08 116.52 L 113.08 137.3 L 89.08 137.3 L 77.08 116.52 L 89.08 95.74 L 113.08 95.74 Z" fill="none" stroke="#F7A823" stroke-width="6.5" stroke-linejoin="round"/><path d="M 82.92 116.52 L 70.92 137.3 L 46.92 137.3 L 34.92 116.52 L 46.92 95.74 L 70.92 95.74 Z" fill="none" stroke="#F7A823" stroke-width="6.5" stroke-linejoin="round"/><path d="M 61.83 80.0 L 49.83 100.78 L 25.83 100.78 L 13.83 80.0 L 25.83 59.22 L 49.83 59.22 Z" fill="none" stroke="#F7A823" stroke-width="6.5" stroke-linejoin="round"/><path d="M 82.92 43.48 L 70.92 64.26 L 46.92 64.26 L 34.92 43.48 L 46.92 22.7 L 70.92 22.7 Z" fill="none" stroke="#F7A823" stroke-width="6.5" stroke-linejoin="round"/><path d="M 125.08 43.48 L 113.08 64.26 L 89.08 64.26 L 77.08 43.48 L 89.08 22.7 L 113.08 22.7 Z" fill="none" stroke="#F7A823" stroke-width="6.5" stroke-linejoin="round"/><path d="M 104.0 80.0 L 92.0 100.78 L 68.0 100.78 L 56.0 80.0 L 68.0 59.22 L 92.0 59.22 Z" fill="url(#bg)" stroke="#FFD27A" stroke-width="1.6" stroke-linejoin="round"/></g><g transform="translate(180,336) scale(0.30)"><defs><linearGradient id="bg" x1="80" y1="56" x2="80" y2="104" gradientUnits="userSpaceOnUse"><stop offset="0" stop-color="#FFC75A"/><stop offset="1" stop-color="#E0860C"/></linearGradient></defs><path d="M 146.17 80.0 L 134.17 100.78 L 110.17 100.78 L 98.17 80.0 L 110.17 59.22 L 134.17 59.22 Z" fill="none" stroke="#F7A823" stroke-width="6.5" stroke-linejoin="round"/><path d="M 125.08 116.52 L 113.08 137.3 L 89.08 137.3 L 77.08 116.52 L 89.08 95.74 L 113.08 95.74 Z" fill="none" stroke="#F7A823" stroke-width="6.5" stroke-linejoin="round"/><path d="M 82.92 116.52 L 70.92 137.3 L 46.92 137.3 L 34.92 116.52 L 46.92 95.74 L 70.92 95.74 Z" fill="none" stroke="#F7A823" stroke-width="6.5" stroke-linejoin="round"/><path d="M 61.83 80.0 L 49.83 100.78 L 25.83 100.78 L 13.83 80.0 L 25.83 59.22 L 49.83 59.22 Z" fill="none" stroke="#F7A823" stroke-width="6.5" stroke-linejoin="round"/><path d="M 82.92 43.48 L 70.92 64.26 L 46.92 64.26 L 34.92 43.48 L 46.92 22.7 L 70.92 22.7 Z" fill="none" stroke="#F7A823" stroke-width="6.5" stroke-linejoin="round"/><path d="M 125.08 43.48 L 113.08 64.26 L 89.08 64.26 L 77.08 43.48 L 89.08 22.7 L 113.08 22.7 Z" fill="none" stroke="#F7A823" stroke-width="6.5" stroke-linejoin="round"/><path d="M 104.0 80.0 L 92.0 100.78 L 68.0 100.78 L 56.0 80.0 L 68.0 59.22 L 92.0 59.22 Z" fill="url(#bg)" stroke="#FFD27A" stroke-width="1.6" stroke-linejoin="round"/></g><text x="232" y="364" font-family="Inter,sans-serif" font-size="11" fill="#6A6557">48px</text><g transform="translate(290,346) scale(0.20)"><defs><linearGradient id="bg" x1="80" y1="56" x2="80" y2="104" gradientUnits="userSpaceOnUse"><stop offset="0" stop-color="#FFC75A"/><stop offset="1" stop-color="#E0860C"/></linearGradient></defs><path d="M 146.17 80.0 L 134.17 100.78 L 110.17 100.78 L 98.17 80.0 L 110.17 59.22 L 134.17 59.22 Z" fill="none" stroke="#F7A823" stroke-width="6.5" stroke-linejoin="round"/><path d="M 125.08 116.52 L 113.08 137.3 L 89.08 137.3 L 77.08 116.52 L 89.08 95.74 L 113.08 95.74 Z" fill="none" stroke="#F7A823" stroke-width="6.5" stroke-linejoin="round"/><path d="M 82.92 116.52 L 70.92 137.3 L 46.92 137.3 L 34.92 116.52 L 46.92 95.74 L 70.92 95.74 Z" fill="none" stroke="#F7A823" stroke-width="6.5" stroke-linejoin="round"/><path d="M 61.83 80.0 L 49.83 100.78 L 25.83 100.78 L 13.83 80.0 L 25.83 59.22 L 49.83 59.22 Z" fill="none" stroke="#F7A823" stroke-width="6.5" stroke-linejoin="round"/><path d="M 82.92 43.48 L 70.92 64.26 L 46.92 64.26 L 34.92 43.48 L 46.92 22.7 L 70.92 22.7 Z" fill="none" stroke="#F7A823" stroke-width="6.5" stroke-linejoin="round"/><path d="M 125.08 43.48 L 113.08 64.26 L 89.08 64.26 L 77.08 43.48 L 89.08 22.7 L 113.08 22.7 Z" fill="none" stroke="#F7A823" stroke-width="6.5" stroke-linejoin="round"/><path d="M 104.0 80.0 L 92.0 100.78 L 68.0 100.78 L 56.0 80.0 L 68.0 59.22 L 92.0 59.22 Z" fill="url(#bg)" stroke="#FFD27A" stroke-width="1.6" stroke-linejoin="round"/></g><text x="320" y="364" font-family="Inter,sans-serif" font-size="11" fill="#6A6557">32px</text><g transform="translate(380,354) scale(0.10)"><defs><linearGradient id="bg" x1="80" y1="56" x2="80" y2="104" gradientUnits="userSpaceOnUse"><stop offset="0" stop-color="#FFC75A"/><stop offset="1" stop-color="#E0860C"/></linearGradient></defs><path d="M 146.17 80.0 L 134.17 100.78 L 110.17 100.78 L 98.17 80.0 L 110.17 59.22 L 134.17 59.22 Z" fill="none" stroke="#F7A823" stroke-width="6.5" stroke-linejoin="round"/><path d="M 125.08 116.52 L 113.08 137.3 L 89.08 137.3 L 77.08 116.52 L 89.08 95.74 L 113.08 95.74 Z" fill="none" stroke="#F7A823" stroke-width="6.5" stroke-linejoin="round"/><path d="M 82.92 116.52 L 70.92 137.3 L 46.92 137.3 L 34.92 116.52 L 46.92 95.74 L 70.92 95.74 Z" fill="none" stroke="#F7A823" stroke-width="6.5" stroke-linejoin="round"/><path d="M 61.83 80.0 L 49.83 100.78 L 25.83 100.78 L 13.83 80.0 L 25.83 59.22 L 49.83 59.22 Z" fill="none" stroke="#F7A823" stroke-width="6.5" stroke-linejoin="round"/><path d="M 82.92 43.48 L 70.92 64.26 L 46.92 64.26 L 34.92 43.48 L 46.92 22.7 L 70.92 22.7 Z" fill="none" stroke="#F7A823" stroke-width="6.5" stroke-linejoin="round"/><path d="M 125.08 43.48 L 113.08 64.26 L 89.08 64.26 L 77.08 43.48 L 89.08 22.7 L 113.08 22.7 Z" fill="none" stroke="#F7A823" stroke-width="6.5" stroke-linejoin="round"/><path d="M 104.0 80.0 L 92.0 100.78 L 68.0 100.78 L 56.0 80.0 L 68.0 59.22 L 92.0 59.22 Z" fill="url(#bg)" stroke="#FFD27A" stroke-width="1.6" stroke-linejoin="round"/></g><text x="396" y="364" font-family="Inter,sans-serif" font-size="11" fill="#6A6557">16px</text></svg>