<svg xmlns="http://www.w3.org/2000/svg" width="640" height="650"><rect width="100%" height="100%" fill="#16130D"/><text x="40" y="40" font-family="Inter,sans-serif" font-size="15" font-weight="700" fill="#8A8578">Option A  Refined Cell</text><g transform="translate(40,58) scale(0.62)">
  <defs>
    <linearGradient id="aCell" x1="80" y1="52" x2="80" y2="108" gradientUnits="userSpaceOnUse">
      <stop offset="0" stop-color="#FFC04D"/>
      <stop offset="1" stop-color="#E0860C"/>
    </linearGradient>
  </defs>
  <path d="M80 16 L135.4 48 L135.4 112 L80 144 L24.6 112 L24.6 48 Z" fill="none" stroke="#F7A823" stroke-width="8" stroke-linejoin="round"/>
  <path d="M80 38 L116.4 59 L116.4 101 L80 122 L43.6 101 L43.6 59 Z" fill="none" stroke="#F7A823" stroke-width="2" stroke-opacity="0.35" stroke-linejoin="round"/>
  <path d="M80 54 L102.5 67 L102.5 93 L80 106 L57.5 93 L57.5 67 Z" fill="url(#aCell)" stroke="#FFD27A" stroke-width="1.5" stroke-linejoin="round"/>

</g><g transform="translate(180,74) scale(0.92)"><defs><linearGradient id="wA" x1="40" y1="29" x2="40" y2="51" gradientUnits="userSpaceOnUse"><stop offset="0" stop-color="#FFC04D"/><stop offset="1" stop-color="#E0860C"/></linearGradient></defs><path d="M 40.0 12.0 L 64.2 26.0 L 64.2 54.0 L 40.0 68.0 L 15.8 54.0 L 15.8 26.0 Z" fill="none" stroke="#F7A823" stroke-width="4" stroke-linejoin="round"/><path d="M 40.0 29.0 L 49.5 34.5 L 49.5 45.5 L 40.0 51.0 L 30.5 45.5 L 30.5 34.5 Z" fill="url(#wA)" stroke="#FFD27A" stroke-width="0.8" stroke-linejoin="round"/><text x="92" y="51" font-family="Inter, system-ui, sans-serif" font-size="34" font-weight="700" letter-spacing="-1" fill="#F7F3EC">honeycomb</text>
</g><text x="40" y="190" font-family="Inter,sans-serif" font-size="15" font-weight="700" fill="#8A8578">Option B  Memory Cluster</text><g transform="translate(40,208) scale(0.62)">
  <defs>
    <linearGradient id="bCell" x1="80" y1="59" x2="80" y2="101" gradientUnits="userSpaceOnUse">
      <stop offset="0" stop-color="#FFC04D"/>
      <stop offset="1" stop-color="#E0860C"/>
    </linearGradient>
  </defs>
  <g stroke="#F7A823" stroke-width="5.5" stroke-linejoin="round" fill="none" stroke-opacity="0.85">
    <path d="M 147.1 80 L 135.1 100.8 L 111.1 100.8 L 99.1 80 L 111.1 59.2 L 135.1 59.2 Z"/>
    <path d="M 125.5 117.3 L 113.5 138.1 L 89.5 138.1 L 77.5 117.3 L 89.5 96.5 L 113.5 96.5 Z"/>
    <path d="M 82.5 117.3 L 70.5 138.1 L 46.5 138.1 L 34.5 117.3 L 46.5 96.5 L 70.5 96.5 Z"/>
    <path d="M 60.9 80 L 48.9 100.8 L 24.9 100.8 L 12.9 80 L 24.9 59.2 L 48.9 59.2 Z"/>
    <path d="M 82.5 42.7 L 70.5 63.5 L 46.5 63.5 L 34.5 42.7 L 46.5 21.9 L 70.5 21.9 Z"/>
    <path d="M 125.5 42.7 L 113.5 63.5 L 89.5 63.5 L 77.5 42.7 L 89.5 21.9 L 113.5 21.9 Z"/>
  </g>
  <path d="M 104 80 L 92 100.8 L 68 100.8 L 56 80 L 68 59.2 L 92 59.2 Z" fill="url(#bCell)" stroke="#FFD27A" stroke-width="1.5" stroke-linejoin="round"/>

</g><g transform="translate(180,224) scale(0.92)"><defs><linearGradient id="wA" x1="40" y1="29" x2="40" y2="51" gradientUnits="userSpaceOnUse"><stop offset="0" stop-color="#FFC04D"/><stop offset="1" stop-color="#E0860C"/></linearGradient></defs><path d="M 68.1 40.0 L 63.1 48.7 L 53.1 48.7 L 48.1 40.0 L 53.1 31.3 L 63.1 31.3 Z" fill="none" stroke="#F7A823" stroke-width="2.4" stroke-opacity="0.85" stroke-linejoin="round"/><path d="M 59.1 55.7 L 54.1 64.4 L 44.1 64.4 L 39.1 55.7 L 44.1 47.0 L 54.1 47.0 Z" fill="none" stroke="#F7A823" stroke-width="2.4" stroke-opacity="0.85" stroke-linejoin="round"/><path d="M 40.9 55.7 L 35.9 64.4 L 25.9 64.4 L 20.9 55.7 L 25.9 47.0 L 35.9 47.0 Z" fill="none" stroke="#F7A823" stroke-width="2.4" stroke-opacity="0.85" stroke-linejoin="round"/><path d="M 31.9 40.0 L 26.9 48.7 L 16.9 48.7 L 11.9 40.0 L 16.9 31.3 L 26.9 31.3 Z" fill="none" stroke="#F7A823" stroke-width="2.4" stroke-opacity="0.85" stroke-linejoin="round"/><path d="M 40.9 24.3 L 35.9 33.0 L 25.9 33.0 L 20.9 24.3 L 25.9 15.6 L 35.9 15.6 Z" fill="none" stroke="#F7A823" stroke-width="2.4" stroke-opacity="0.85" stroke-linejoin="round"/><path d="M 59.1 24.3 L 54.1 33.0 L 44.1 33.0 L 39.1 24.3 L 44.1 15.6 L 54.1 15.6 Z" fill="none" stroke="#F7A823" stroke-width="2.4" stroke-opacity="0.85" stroke-linejoin="round"/><path d="M 50.0 40.0 L 45.0 48.7 L 35.0 48.7 L 30.0 40.0 L 35.0 31.3 L 45.0 31.3 Z" fill="url(#wA)" stroke="#FFD27A" stroke-width="0.8" stroke-linejoin="round"/><text x="92" y="51" font-family="Inter, system-ui, sans-serif" font-size="34" font-weight="700" letter-spacing="-1" fill="#F7F3EC">honeycomb</text>
</g><text x="40" y="340" font-family="Inter,sans-serif" font-size="15" font-weight="700" fill="#8A8578">Option C  Nested Layers</text><g transform="translate(40,358) scale(0.62)">
  <defs>
    <linearGradient id="cCell" x1="80" y1="56" x2="80" y2="104" gradientUnits="userSpaceOnUse">
      <stop offset="0" stop-color="#FFC04D"/>
      <stop offset="1" stop-color="#E0860C"/>
    </linearGradient>
  </defs>
  <path d="M80 16 L135.4 48 L135.4 112 L80 144 L24.6 112 L24.6 48 Z" fill="none" stroke="#F7A823" stroke-width="8" stroke-linejoin="round"/>
  <path d="M80 36 L118.1 58 L118.1 102 L80 124 L41.9 102 L41.9 58 Z" fill="none" stroke="#F7A823" stroke-width="5" stroke-opacity="0.6" stroke-linejoin="round"/>
  <path d="M80 56 L100.8 68 L100.8 92 L80 104 L59.2 92 L59.2 68 Z" fill="url(#cCell)" stroke="#FFD27A" stroke-width="1.5" stroke-linejoin="round"/>

</g><g transform="translate(180,374) scale(0.92)"><defs><linearGradient id="wA" x1="40" y1="29" x2="40" y2="51" gradientUnits="userSpaceOnUse"><stop offset="0" stop-color="#FFC04D"/><stop offset="1" stop-color="#E0860C"/></linearGradient></defs><path d="M 40.0 12.0 L 64.2 26.0 L 64.2 54.0 L 40.0 68.0 L 15.8 54.0 L 15.8 26.0 Z" fill="none" stroke="#F7A823" stroke-width="4" stroke-linejoin="round"/><path d="M 40.0 21.0 L 56.5 30.5 L 56.5 49.5 L 40.0 59.0 L 23.5 49.5 L 23.5 30.5 Z" fill="none" stroke="#F7A823" stroke-width="2.4" stroke-opacity="0.6" stroke-linejoin="round"/><path d="M 40.0 30.0 L 48.7 35.0 L 48.7 45.0 L 40.0 50.0 L 31.3 45.0 L 31.3 35.0 Z" fill="url(#wA)" stroke="#FFD27A" stroke-width="0.8" stroke-linejoin="round"/><text x="92" y="51" font-family="Inter, system-ui, sans-serif" font-size="34" font-weight="700" letter-spacing="-1" fill="#F7F3EC">honeycomb</text>
</g><text x="40" y="490" font-family="Inter,sans-serif" font-size="15" font-weight="700" fill="#8A8578">Option D  Vector Nodes</text><g transform="translate(40,508) scale(0.62)">
  <defs>
    <radialGradient id="dCore" cx="0.5" cy="0.4" r="0.7">
      <stop offset="0" stop-color="#FFD27A"/>
      <stop offset="1" stop-color="#E0860C"/>
    </radialGradient>
  </defs>
  <path d="M80 16 L135.4 48 L135.4 112 L80 144 L24.6 112 L24.6 48 Z" fill="none" stroke="#F7A823" stroke-width="8" stroke-linejoin="round"/>
  <g stroke="#F7A823" stroke-width="2.4" stroke-opacity="0.55" stroke-linecap="round">
    <path d="M80 80 L80 54"/>
    <path d="M80 80 L102.5 67"/>
    <path d="M80 80 L102.5 93"/>
    <path d="M80 80 L80 106"/>
    <path d="M80 80 L57.5 93"/>
    <path d="M80 80 L57.5 67"/>
  </g>
  <g fill="#F7A823">
    <circle cx="80" cy="54" r="5"/>
    <circle cx="102.5" cy="67" r="5"/>
    <circle cx="102.5" cy="93" r="5"/>
    <circle cx="80" cy="106" r="5"/>
    <circle cx="57.5" cy="93" r="5"/>
    <circle cx="57.5" cy="67" r="5"/>
  </g>
  <circle cx="80" cy="80" r="11" fill="url(#dCore)" stroke="#FFD27A" stroke-width="1.5"/>

</g><g transform="translate(180,524) scale(0.92)"><defs><linearGradient id="wA" x1="40" y1="29" x2="40" y2="51" gradientUnits="userSpaceOnUse"><stop offset="0" stop-color="#FFC04D"/><stop offset="1" stop-color="#E0860C"/></linearGradient></defs><path d="M 40.0 12.0 L 64.2 26.0 L 64.2 54.0 L 40.0 68.0 L 15.8 54.0 L 15.8 26.0 Z" fill="none" stroke="#F7A823" stroke-width="4" stroke-linejoin="round"/><g stroke="#F7A823" stroke-width="1.3" stroke-opacity="0.55" stroke-linecap="round"><path d="M40 40 L40.0 29.0"/><path d="M40 40 L49.5 34.5"/><path d="M40 40 L49.5 45.5"/><path d="M40 40 L40.0 51.0"/><path d="M40 40 L30.5 45.5"/><path d="M40 40 L30.5 34.5"/></g><g fill="#F7A823"><circle cx="40.0" cy="29.0" r="2.4"/><circle cx="49.5" cy="34.5" r="2.4"/><circle cx="49.5" cy="45.5" r="2.4"/><circle cx="40.0" cy="51.0" r="2.4"/><circle cx="30.5" cy="45.5" r="2.4"/><circle cx="30.5" cy="34.5" r="2.4"/></g><circle cx="40" cy="40" r="5" fill="url(#wA)" stroke="#FFD27A" stroke-width="0.8"/><text x="92" y="51" font-family="Inter, system-ui, sans-serif" font-size="34" font-weight="700" letter-spacing="-1" fill="#F7F3EC">honeycomb</text>
</g></svg>