<svg width="340" height="80" viewBox="0 0 340 80" fill="none" xmlns="http://www.w3.org/2000/svg" role="img" aria-label="Honeycomb"><defs><linearGradient id="wA" x1="40" y1="29" x2="40" y2="51" gradientUnits="userSpaceOnUse"><stop offset="0" stop-color="#FFC04D"/><stop offset="1" stop-color="#E0860C"/></linearGradient></defs><path d="M 40.0 12.0 L 64.2 26.0 L 64.2 54.0 L 40.0 68.0 L 15.8 54.0 L 15.8 26.0 Z" fill="none" stroke="#F7A823" stroke-width="4" stroke-linejoin="round"/><g stroke="#F7A823" stroke-width="1.3" stroke-opacity="0.55" stroke-linecap="round"><path d="M40 40 L40.0 29.0"/><path d="M40 40 L49.5 34.5"/><path d="M40 40 L49.5 45.5"/><path d="M40 40 L40.0 51.0"/><path d="M40 40 L30.5 45.5"/><path d="M40 40 L30.5 34.5"/></g><g fill="#F7A823"><circle cx="40.0" cy="29.0" r="2.4"/><circle cx="49.5" cy="34.5" r="2.4"/><circle cx="49.5" cy="45.5" r="2.4"/><circle cx="40.0" cy="51.0" r="2.4"/><circle cx="30.5" cy="45.5" r="2.4"/><circle cx="30.5" cy="34.5" r="2.4"/></g><circle cx="40" cy="40" r="5" fill="url(#wA)" stroke="#FFD27A" stroke-width="0.8"/><text x="92" y="51" font-family="Inter, system-ui, sans-serif" font-size="34" font-weight="700" letter-spacing="-1" fill="#F7F3EC">honeycomb</text></svg>
